# xmcd
#
# Track frame offsets:
#	150
#	13602
#	26395
#	39014
#	51749
#	62138
#	72558
#	83230
#	96596
#	107120
#	120585
#	131607
#
# Disc length: 1906 seconds
#
# Revision: 0
# Processed by: cddbd v1.5.2PL0 Copyright (c) Steve Scherf et al.
# Submitted via: audiograbber 1.83.01
#
DISCID=a607700c
DTITLE=The Hollyridge Strings - The Nat King Cole Song Book
DYEAR=1900
DGENRE=
TTITLE0=Unforgettable
TTITLE1=It's Only A PAper Moon
TTITLE2=Somewhere Along The Way
TTITLE3=The Cristmas Sone (Merry Christmas To You)
TTITLE4=Rambling Rose
TTITLE5=Pretend
TTITLE6=Love
TTITLE7=Mona Lisa
TTITLE8=Nature Boy
TTITLE9=Answer Me My Love
TTITLE10=Those Lazy Hazy Crazy Days Of Summer
TTITLE11=Too Young
EXTD=
EXTT0=
EXTT1=
EXTT2=
EXTT3=
EXTT4=
EXTT5=
EXTT6=
EXTT7=
EXTT8=
EXTT9=
EXTT10=
EXTT11=
PLAYORDER=
